
        <svg xmlns="http://www.w3.org/2000/svg" xmlns:xlink="http://www.w3.org/1999/xlink" version="1.1" width="3162.011394694929" 
        height="824.9948746619307" viewBox="0 0 3162.011394694929 824.9948746619307">
			
			<g transform="scale(8.100569734746475) translate(10, 10)">
				<defs id="SvgjsDefs7244"><linearGradient id="SvgjsLinearGradient7251"><stop id="SvgjsStop7252" stop-color="#51504f" offset="0"></stop><stop id="SvgjsStop7253" stop-color="#939598" offset="0.5"></stop><stop id="SvgjsStop7254" stop-color="#51504f" offset="1"></stop></linearGradient></defs><g id="SvgjsG7245" featureKey="symbolFeature-0" transform="matrix(0.9090528762323493,0,0,0.9090528762323493,-5.188875717867564,-2.3096910429279056)" fill="#535353"><g xmlns="http://www.w3.org/2000/svg"><g><path fill="#535353" d="M61.796,31.233c0.24-1.163-3.086-4.209-6.512-4.913c-3.425-0.705-6.395-0.332-6.634,0.83    c-0.239,1.162,2.344,2.676,5.769,3.38C57.846,31.235,61.559,32.396,61.796,31.233z M69.664,46.394    c-0.936,0.926,0.518,3.908,3.24,6.66c2.725,2.754,4.967,5.631,5.9,4.707c0.937-0.924,0.209-5.303-2.519-8.055    C73.564,46.952,70.598,45.468,69.664,46.394z M58.688,38.791c-2.976-2.481-6.067-3.674-6.912-2.665    c-0.84,1.01,0.889,3.84,3.861,6.32c2.975,2.48,7.342,2.554,8.187,1.545C64.664,42.98,61.661,41.271,58.688,38.791z M38.457,30.02    c-3.865-0.255-7.069,0.602-7.155,1.914c-0.086,1.312,2.976,2.583,6.841,2.838c3.865,0.256,7.068-0.602,7.155-1.913    C45.385,31.546,42.322,30.275,38.457,30.02z M95.51,83.817l-1.517,0.062l1.515-0.094c-0.146-2.334-0.203-5.152-1.226-9.117    c-1.021-3.969-2.988-9.088-6.901-16.281c-0.009-0.016-0.02-0.031-0.027-0.049c-5.725-12.242-15.646-29.457-30.223-39.748    c0.11-0.737,0.186-1.562,0.186-2.443c-0.002-1.361-0.166-2.835-0.684-4.231c-0.511-1.385-1.435-2.738-2.929-3.546    c-0.138-0.074-0.282-0.126-0.437-0.157c-0.078-0.015-0.927-0.172-2.331-0.172C49.01,8.04,46.019,8.34,42.543,9.725    c-0.239-0.01-0.583-0.021-1.01-0.021c-2.319,0.026-7.078,0.236-10.745,2.775c-1.496,0.163-6.361,0.841-10.332,3.709    c-0.163-0.011-0.351-0.017-0.564-0.017c-1.883-0.002-5.73,0.499-11.7,3.485c-0.146,0.074-0.271,0.171-0.382,0.281    c-0.424,0.241-0.811,0.574-1.11,0.997c-0.673,0.93-0.99,2.153-0.992,3.674c0.005,2.137,0.625,4.931,2.183,8.719    c0.162,0.391,0.475,0.693,0.871,0.842c0.007,0.002,2.845,1.068,7.682,3.051c10.592,4.344,30.688,13.07,50.89,24.396    c0.012,0.131,0.029,0.26,0.029,0.395c0.002,3.5,0.352,6.324,0.869,8.363c0.265,1.025,0.562,1.85,0.941,2.527    c0.195,0.338,0.409,0.646,0.727,0.934c0.307,0.277,0.783,0.574,1.426,0.58c0.76,0.002,1.354-0.463,1.643-0.857    c0.452-0.612,0.633-1.247,0.801-2.053c0.154-0.807,0.248-1.781,0.276-2.977c0.026-1.293,0.308-2.217,0.593-2.697    c0.557,0.332,1.115,0.658,1.672,0.994c0.717,1.488,1.41,4.205,1.381,8.248v0.303c0,0,0,0.043,0,0.107    c0.002,1.846,0.302,3.553,0.785,4.908c0.25,0.68,0.533,1.271,0.938,1.795c0.393,0.484,0.979,1.062,1.988,1.092    c0.834,0.004,1.504-0.51,1.854-1c0.558-0.76,0.833-1.658,1.081-2.92c0.234-1.261,0.389-2.875,0.439-4.957    c0.014-0.568,0.066-1.057,0.14-1.438c0.224,0.459,0.474,1.104,0.685,1.934c0.449,1.67,0.832,4.07,1.004,7.241    c0.183,3.286,0.658,5.671,1.361,7.378c0.357,0.854,0.771,1.549,1.319,2.102c0.53,0.539,1.286,0.955,2.128,0.955h0.01    c0.803,0,1.512-0.373,2.01-0.844c1.459-1.453,2.058-3.805,2.099-6.975C95.529,84.454,95.523,84.139,95.51,83.817z M10.456,31.565    c-1.279-3.23-1.714-5.518-1.709-6.957c-0.002-1.098,0.246-1.668,0.408-1.883c0.172-0.209,0.203-0.177,0.285-0.191    c0.043-0.001,0.237,0.019,0.57,0.275c1.029,0.733,2.79,3.659,3.581,9.719c0.001,0.013,0.006,0.024,0.008,0.037    c0.003,0.022,0.004,0.045,0.009,0.067c0.01,0.049,0.026,0.098,0.041,0.146c0.003,0.009,0.003,0.021,0.007,0.03    c0.002,0.004,0.002,0.008,0.003,0.011C12.173,32.229,11.085,31.808,10.456,31.565z M16.28,29.759    c-0.626-3.868-1.593-6.291-2.723-7.879c-0.254-0.365-0.524-0.682-0.8-0.955c3.731-1.495,6.071-1.715,7.138-1.716    c0.279,0,0.472,0.015,0.582,0.027c0.053,0.006,0.087,0.011,0.102,0.013c0.444,0.093,0.906-0.017,1.261-0.3    c1.856-1.494,4.287-2.401,6.246-2.896c0.979-0.249,1.837-0.397,2.442-0.484c0.303-0.043,0.542-0.071,0.703-0.088    c0.159-0.016,0.224-0.02,0.224-0.021c0.295-0.021,0.585-0.13,0.821-0.31c2.584-2.037,7.142-2.438,9.261-2.411    c0.369,0,0.663,0.009,0.862,0.018c0.199,0.009,0.284,0.018,0.284,0.017c0.239,0.019,0.48-0.02,0.703-0.111    c3.18-1.319,5.888-1.585,7.555-1.585c0.588,0,1.047,0.033,1.347,0.063c0.065,0.008,0.124,0.015,0.174,0.021    c0.589,0.388,1.013,0.984,1.328,1.814c0.344,0.913,0.493,2.066,0.491,3.17c0.001,0.673-0.057,1.319-0.137,1.889    c-2.412,0.47-8.483,1.705-15.35,3.506C30.91,23.627,22.061,26.378,16.28,29.759z M18.286,34.696    c0.064,0.018,0.128,0.036,0.193,0.054c0.697,0.197,1.399,0.403,2.111,0.625c0.068,0.021,0.136,0.044,0.205,0.066    c0.684,0.215,1.375,0.44,2.07,0.679c0.112,0.038,0.225,0.075,0.336,0.114c0.725,0.249,1.456,0.511,2.192,0.78    c0.138,0.051,0.276,0.104,0.415,0.154c0.756,0.282,1.517,0.571,2.284,0.875c0.006,0.002,0.012,0.005,0.018,0.007    c0.765,0.303,1.537,0.619,2.311,0.942c0.134,0.055,0.266,0.11,0.4,0.167c0.756,0.318,1.516,0.644,2.278,0.979    c0.132,0.059,0.264,0.117,0.395,0.175c0.757,0.336,1.517,0.676,2.277,1.025c0.036,0.017,0.072,0.033,0.108,0.049    c0.781,0.358,1.563,0.729,2.346,1.103c0.156,0.075,0.312,0.147,0.467,0.224c0.762,0.366,1.526,0.738,2.29,1.115    c0.129,0.063,0.259,0.129,0.389,0.194c0.708,0.353,1.417,0.709,2.125,1.069c0.112,0.059,0.225,0.114,0.338,0.172    c0.753,0.386,1.505,0.776,2.256,1.17c0.185,0.098,0.37,0.194,0.555,0.292c0.739,0.391,1.477,0.784,2.213,1.182    c0.139,0.076,0.278,0.151,0.417,0.227c0.646,0.353,1.288,0.701,1.928,1.058c0.181,0.1,0.361,0.198,0.542,0.298    c0.7,0.389,1.397,0.777,2.091,1.171c0.223,0.125,0.439,0.25,0.66,0.373c0.654,0.373,1.311,0.746,1.958,1.121    c0.185,0.104,0.366,0.213,0.551,0.317c0.574,0.334,1.146,0.668,1.713,1c0.132,0.077,0.265,0.155,0.396,0.231    C42.667,45.077,27.348,38.427,18.286,34.696z M91.833,88.756c-0.149,0.344-0.31,0.578-0.418,0.697    c-0.052-0.053-0.119-0.133-0.194-0.244c-0.604-0.822-1.386-3.221-1.584-7.232c-0.224-4.062-0.762-7.01-1.466-9.061    c-0.356-1.025-0.747-1.832-1.241-2.477c-0.484-0.617-1.162-1.225-2.207-1.246h-0.021c-0.622,0-1.202,0.293-1.57,0.648    c-0.133,0.127-0.247,0.264-0.349,0.402c-0.102,0.131-0.186,0.271-0.264,0.414c-0.002,0.002-0.004,0.002-0.004,0.006    c-0.188,0.344-0.324,0.709-0.438,1.104c-0.201,0.732-0.31,1.578-0.335,2.557c-0.055,2.234-0.242,3.846-0.471,4.868    c-0.041-0.125-0.08-0.252-0.114-0.39c-0.257-0.908-0.431-2.092-0.431-3.321c0-0.009,0-0.037,0.002-0.087v-0.322    c-0.002-2.283-0.188-4.219-0.508-5.854c-0.002-0.002-0.002-0.004-0.002-0.006c-0.062-0.312-0.128-0.617-0.197-0.908    c-0.004-0.012-0.006-0.02-0.008-0.028c-0.068-0.278-0.143-0.552-0.22-0.812c-0.021-0.062-0.039-0.121-0.06-0.184    c-0.063-0.207-0.129-0.414-0.197-0.607c-0.096-0.264-0.193-0.516-0.299-0.756c-0.463-1.053-1.014-1.896-1.694-2.529    c-0.674-0.627-1.534-1.055-2.476-1.055c-0.168,0-0.332,0.014-0.49,0.039c-0.066,0.01-0.131,0.033-0.196,0.047    c-0.09,0.021-0.182,0.039-0.271,0.066c-0.118,0.039-0.233,0.09-0.348,0.143c-0.029,0.014-0.062,0.023-0.09,0.037    c-0.134,0.066-0.263,0.146-0.388,0.227c-0.005,0.007-0.013,0.009-0.017,0.013c-0.391,0.265-0.727,0.604-0.998,0.985    c0,0-0.002,0-0.002,0.003c-0.07,0.099-0.135,0.202-0.195,0.305c-0.018,0.031-0.038,0.06-0.057,0.089    c0,0.002-0.002,0.004-0.002,0.004c-0.639,1.1-0.968,2.489-1.012,4.164c-0.003,0.135-0.007,0.268-0.012,0.393    c-0.006-0.021-0.01-0.041-0.014-0.062c-0.285-1.398-0.498-3.232-0.562-5.418c-0.005-0.189-0.009-0.381-0.015-0.574    c-0.004-0.258-0.008-0.514-0.008-0.779c0.002-3.397-2.062-5.913-4.578-7.815l-0.131-0.09c-0.223-0.136-0.445-0.271-0.67-0.405    c-0.009-0.005-0.018-0.011-0.023-0.017c-1.438-0.871-2.911-1.753-4.406-2.635c-0.029-0.019-0.062-0.036-0.096-0.055    c-0.029-0.019-0.061-0.036-0.092-0.054c-0.842-0.496-1.692-0.992-2.553-1.486c-0.015-0.01-0.029-0.018-0.043-0.024    c-0.142-0.082-0.281-0.162-0.423-0.244c-0.003-0.002-0.006-0.004-0.009-0.006c-0.75-0.43-1.506-0.857-2.266-1.289    c-0.021-0.012-0.043-0.023-0.064-0.035c-0.143-0.081-0.283-0.161-0.426-0.241c-0.004-0.002-0.008-0.004-0.012-0.006    c-2.656-1.494-5.362-2.963-8.092-4.381c-0.005-0.003-0.009-0.006-0.014-0.009c-0.1-0.051-0.201-0.104-0.301-0.155l-0.006-0.002    c-0.859-0.446-1.721-0.887-2.583-1.319c-0.003-0.002-0.008-0.004-0.011-0.006c-0.067-0.034-0.134-0.067-0.201-0.102    c-0.006-0.002-0.012-0.006-0.018-0.009c-0.896-0.45-1.793-0.893-2.691-1.327c-0.001-0.001-0.002-0.002-0.003-0.002    c-0.018-0.009-0.036-0.017-0.055-0.025c-0.007-0.003-0.014-0.008-0.021-0.011c-0.565-0.273-1.13-0.543-1.695-0.811l-0.136-0.064    c-0.545-0.257-1.09-0.511-1.635-0.762c-0.035-0.016-0.071-0.032-0.106-0.049c-2.934-1.347-5.85-2.592-8.714-3.7    c-0.011-0.004-0.022-0.009-0.032-0.013c-3.196-1.234-6.326-2.299-9.336-3.134c5.297-2.803,13.405-5.374,20.604-7.25    c4.377-1.148,8.442-2.067,11.409-2.698c1.963-0.417,3.438-0.706,4.213-0.855c0.268,0.188,0.53,0.381,0.795,0.573    c5.119,3.708,9.678,8.383,13.668,13.406c-2.188-0.489-3.955-0.336-4.213,0.45c-0.312,0.95,1.705,2.465,4.508,3.384    c1.104,0.361,2.158,0.574,3.057,0.645c4.949,7.002,8.849,14.307,11.662,20.367c0.033,0.074,0.072,0.146,0.117,0.213    c2.082,3.834,3.572,7.022,4.649,9.729c0.198,0.496,0.384,0.977,0.554,1.439l0.024,0.068c0.522,1.426,0.925,2.702,1.235,3.857    c0.031,0.123,0.064,0.246,0.098,0.367c0.938,3.652,0.982,6.095,1.134,8.519c0.013,0.276,0.019,0.55,0.019,0.812    C92.496,86.545,92.195,87.942,91.833,88.756z"></path></g></g></g><g id="SvgjsG7246" featureKey="nameFeature-0" transform="matrix(1.2544633226370014,0,0,1.2544633226370014,99.51042640071834,-9.28734990234167)" fill="#000000"><path d="M2.04 15.239999999999998 c0.04 2.36 0.04 22.4 0.04 24.04 c0 0.6 0.08 0.72 0.68 0.72 c1.36 0 1.36 0.04 2.72 0 c0.28 0 0.76 0 1 -0.12 c0.28 -0.12 0.12 -9.56 0.12 -10.08 c0 -0.56 1.12 -0.44 1.44 -0.44 c6.68 0 8.52 -4.8 8.52 -8.88 c0 -3.68 -0.72 -10.48 -9.04 -10.48 c-1.44 0 -2.92 0.04 -4.32 0.04 c-0.32 0 -0.72 -0.04 -1 0.16 c-0.32 0.24 -0.2 3.8 -0.16 5.04 z M6.64 23.48 c0 -0.88 -0.04 -6.12 0 -7.72 c0 -0.24 -0.04 -0.52 0 -0.8 c0.12 -0.44 0.64 -0.44 1.04 -0.4 c2.32 0.16 3.64 2.2 3.84 4.36 c0.16 1.56 -0.04 3.88 -1.16 5.12 c-0.8 0.84 -1.84 1.36 -3.2 1.36 c-0.28 0 -0.56 -0.32 -0.56 -0.6 c0 -0.44 0 -0.88 0.04 -1.32 z M26.08 29.68 c-0.12 -4.56 -0.08 -9.4 -0.04 -13.92 c0 -1.4 -0.08 -2.92 -0.08 -4.32 c0 -1.52 -0.6 -1.44 -1.4 -1.48 c-1.16 -0.04 -1.68 -0.04 -2.84 -0.04 c-0.76 -0.04 -1.08 0.16 -1.08 0.92 c0 3.92 -0.12 15 -0.08 16.6 s0.2 8.88 0.12 10.48 c-0.04 0.56 0 1.12 0.04 1.68 c0.04 0.2 0.16 0.4 0.48 0.4 c1.32 -0.08 2.56 -0.08 3.88 -0.12 c0.48 -0.04 0.88 -0.16 1.08 -0.68 c0.04 -0.28 -0.08 -7.6 -0.08 -9.52 z M37.8 10 l-6.08 0 c-0.52 0 -0.84 0.28 -0.84 0.8 c0 1.56 0.08 1.88 0.08 3.2 c0 0.56 0.44 0.56 2.72 0.56 c1.12 0 4.08 0 4.36 0.04 c0.08 0.04 0.24 0.2 0.24 0.32 c0 0.28 -0.08 0.56 -0.16 0.8 c-0.08 0.16 -0.12 0.32 -0.16 0.48 c-0.12 0.36 -7.68 22.4 -7.76 22.8 c-0.24 0.84 0.6 0.92 1.2 0.92 c1.08 0.04 12.2 0.08 13.28 0.08 c0.52 0 0.72 -0.4 0.72 -0.92 c0 -0.84 0.12 -1.72 0.12 -2.6 c0 -1.72 -1 -1.2 -2.92 -1.2 c-1.64 0 -3.08 -0.04 -4.92 -0.04 c-0.4 0 -0.76 -0.4 -0.64 -0.8 c0.4 -1.8 4.92 -14.8 5.76 -16.92 c0.32 -0.76 3.08 -7.4 1.56 -7.48 c-0.32 -0.04 -0.64 0 -0.96 0 c-1.88 0 -3.72 0 -5.6 -0.04 z M57.16 10 l-6.08 0 c-0.52 0 -0.84 0.28 -0.84 0.8 c0 1.56 0.08 1.88 0.08 3.2 c0 0.56 0.44 0.56 2.72 0.56 c1.12 0 4.08 0 4.36 0.04 c0.08 0.04 0.24 0.2 0.24 0.32 c0 0.28 -0.08 0.56 -0.16 0.8 c-0.08 0.16 -0.12 0.32 -0.16 0.48 c-0.12 0.36 -7.68 22.4 -7.76 22.8 c-0.24 0.84 0.6 0.92 1.2 0.92 c1.08 0.04 12.2 0.08 13.28 0.08 c0.52 0 0.72 -0.4 0.72 -0.92 c0 -0.84 0.12 -1.72 0.12 -2.6 c0 -1.72 -1 -1.2 -2.92 -1.2 c-1.64 0 -3.08 -0.04 -4.92 -0.04 c-0.4 0 -0.76 -0.4 -0.64 -0.8 c0.4 -1.8 4.92 -14.8 5.76 -16.92 c0.32 -0.76 3.08 -7.4 1.56 -7.48 c-0.32 -0.04 -0.64 0 -0.96 0 c-1.88 0 -3.72 0 -5.6 -0.04 z M72.56 39.68 c0.12 0.04 0.48 0.04 0.84 0.04 c0.8 0 1.04 -2.88 1.12 -3.48 c0.04 -0.48 0.16 -0.52 0.56 -0.6 c2 -0.24 3 -0.08 5 -0.04 c0.44 0 0.68 0.2 0.8 0.56 l0.28 0.92 c0.24 0.68 0.44 1.52 0.68 2.2 c0.16 0.48 0.2 0.44 0.68 0.44 c0.64 0 2.96 0 3.64 -0.04 c0.92 0 0.28 -1.88 0.16 -2.2 c-0.36 -1.12 -0.44 -2.28 -0.8 -3.4 c-0.16 -0.48 -4.72 -22.12 -4.92 -23.32 c-0.28 -0.72 -0.04 -0.76 -0.68 -0.76 c-1.36 0 -2.8 0.08 -4.2 0 c-0.56 0 -0.52 0.16 -0.6 0.76 c-0.08 0.56 -1.52 6.92 -2.08 9.56 c-0.72 3.32 -1.36 6.52 -2.16 9.8 c-0.28 1.16 -2.2 9.52 -1.96 9.56 c0.12 0.08 0.32 0.04 0.48 0.04 c1 0 1.92 0 3.16 -0.04 z M77.8 30.6 l-0.84 0 c-1.12 0 -1.16 0 -0.88 -1.16 c0.2 -0.88 1.28 -5.64 1.52 -6.8 c0.04 -0.08 0.12 -0.16 0.16 -0.16 c0.08 0 0.16 0.08 0.2 0.12 c0.16 0.48 0.32 1.68 0.48 2.16 c0.36 1.52 0.6 2.8 0.96 4.44 c0.36 1.44 0.2 1.44 -0.52 1.44 c-0.36 0 -0.72 -0.04 -1.08 -0.04 z M105.72 35.64 c0.04 1.24 0.04 2.48 0.08 3.72 c0 0.56 0.04 0.64 0.6 0.64 l3.6 0 c0.76 0 0.6 -1.28 0.56 -1.96 l0.12 -22.4 c0 -0.6 0.2 -0.8 1 -0.8 l3.52 0 c0.84 0 0.64 -1.44 0.64 -2.44 c0 -0.88 0.32 -2.4 -0.64 -2.4 c-0.68 0 -7.2 0 -9.88 0.04 c-1.32 0 -2.4 -0.04 -3.72 -0.04 c-1 0 -0.96 0.8 -0.96 2.56 c0 1.12 -0.04 2.24 0.92 2.24 c0.56 0 2.84 0 3.48 0.04 c0.4 0 0.68 0.12 0.76 0.56 c0 0.12 0.04 0.24 0.04 0.36 c0 2.88 -0.2 16.28 -0.12 19.88 z M140.95999999999998 17.36 c0.84 2.48 1.04 5.16 1.04 7.8 c0 2.2 -0.4 4.32 -0.96 6.44 c-0.72 2.52 -1.92 4.8 -4.08 6.28 c-1.6 1.16 -3.28 1.92 -5.24 2.12 c-0.28 0 -0.52 0.04 -0.8 0.04 c-0.24 0 -0.48 -0.04 -0.76 -0.04 c-1.96 -0.2 -3.64 -0.96 -5.28 -2.12 c-2.12 -1.48 -3.36 -3.76 -4.04 -6.28 c-0.6 -2.12 -0.96 -4.24 -0.96 -6.44 c0 -2.64 0.2 -5.32 1.04 -7.8 c1.48 -4.28 5.56 -7.32 10 -7.4 c4.44 0.08 8.52 3.12 10.04 7.4 z M137.07999999999998 28.08 c0.4 -2.44 0.24 -4.92 -0.24 -7.36 c-0.48 -2.2 -1.44 -4.36 -3.28 -5.68 c-0.32 -0.24 -0.68 -0.44 -1.04 -0.56 c-0.52 -0.24 -1.08 -0.32 -1.6 -0.32 s-1.04 0.08 -1.56 0.32 c-0.4 0.12 -0.72 0.32 -1.04 0.56 c-1.88 1.32 -2.84 3.48 -3.28 5.68 c-0.48 2.44 -0.64 4.92 -0.24 7.36 c0.4 2.2 1.2 5.16 3.28 6.28 c0.88 0.48 1.84 0.8 2.84 0.84 c1 -0.04 2 -0.36 2.88 -0.84 c2.08 -1.12 2.88 -4.08 3.28 -6.28 z M147.64 9.96 c-0.04 0 -0.36 -0.04 -0.68 -0.04 c-0.56 0 -0.84 0.2 -0.92 0.72 c-0.04 0.28 -0.04 0.6 0.04 0.84 c0.32 1.24 6.52 26.88 6.84 28 c0.12 0.48 0.16 0.48 0.64 0.48 l3.24 0 l0.24 0 c0.52 0 0.56 -0.72 0.68 -1.4 c0.8 -4.12 1.8 -8.2 2.76 -12.16 c0.04 -0.24 0.12 -0.48 0.2 -0.68 c0.04 -0.08 0.12 -0.12 0.16 -0.12 c0.08 0 0.16 0.04 0.2 0.12 c0.2 0.48 2.6 11.84 3.08 13.8 c0.08 0.24 0.2 0.44 0.52 0.44 l3.2 0 c0.6 0 1 -0.32 1.12 -0.92 c0.52 -2.64 1.2 -5.6 1.84 -8.2 c0.8 -3.2 1.64 -6.36 2.48 -9.56 c0.64 -2.56 1.32 -5.36 2.12 -7.88 c0.28 -0.84 1.32 -3.36 -0.44 -3.36 c-0.88 0 -1.64 -0.08 -2.52 -0.04 c-0.28 0 -0.56 0 -0.84 0.04 c-0.44 0 -0.76 0.24 -0.92 0.64 c-0.12 0.4 -0.32 0.84 -0.44 1.24 c-0.6 2.56 -1.16 5.48 -1.88 8 c-0.52 1.88 -1.08 3.72 -1.52 5.6 c0 0.04 -0.16 0.64 -0.32 0.64 c-0.28 0 -0.36 -0.44 -0.44 -0.84 c-0.04 -0.16 -2.04 -11.64 -2.32 -13.88 c-0.08 -0.88 -0.36 -1.4 -1.28 -1.44 l-0.48 0 c-1.04 0.08 -1.6 -0.04 -2.64 0.04 c-0.84 0.04 -0.96 0.12 -1.16 0.88 c-0.04 0.16 -0.04 0.36 -0.08 0.56 c-0.32 1.76 -2.4 13.12 -2.68 14.48 c0 0.08 -0.04 0.24 -0.16 0.24 c-0.16 0 -0.2 -0.2 -0.24 -0.28 c-0.04 -0.16 -3.52 -14.84 -3.64 -15.2 c-0.16 -0.48 -0.52 -0.76 -1.08 -0.76 c-0.88 0.04 -1.56 0 -2.68 0 z M197 10.920000000000002 c0.12 0.56 0.04 27.2 0.04 27.88 c0 1.2 -0.44 1.16 -1.24 1.16 c-1.2 0 -2.88 0.2 -3.24 -0.2 c-0.32 -0.28 -6.24 -14.56 -7.08 -16.36 c-0.08 -0.16 -0.28 -0.56 -0.44 -0.48 c-0.2 0.08 -0.12 0.36 -0.12 0.52 c-0.04 1.4 0.2 13.48 0.2 15.4 c0 0.96 -0.04 1.12 -0.84 1.12 l-2 0 c-0.52 0 -1.16 -0.04 -1.68 0.04 c-0.4 0 -0.6 -0.12 -0.64 -0.52 l0 -3.16 c0.08 -3.36 0 -23.28 0 -24.76 c0 -1.28 0.36 -1.52 1.64 -1.52 c0.88 -0.04 1.76 -0.04 2.64 -0.04 c0.28 0 0.44 0.04 0.6 0.4 c1.08 2.52 5.68 14.08 6.4 15.48 c0.12 0.28 0.56 1.4 0.8 1.52 l0.04 0 c0.16 -0.16 0.12 -0.96 0.12 -1.2 c0 -0.6 -0.32 -14.64 -0.32 -14.92 c0 -0.4 -0.12 -0.76 0.08 -1.04 c0.12 -0.16 0.64 -0.2 0.84 -0.24 c1.12 -0.08 2.44 0.04 3.56 0 c0.56 0 0.52 0.4 0.64 0.92 z M209.24 9.8 c-0.76 0.04 -1.52 0.16 -2.28 0.4 c-1.64 0.56 -3.12 1.68 -4.12 3.12 c-0.88 1.32 -1.24 2.88 -1.36 4.44 c-0.08 1.2 0.04 2.44 0.6 3.52 c0.6 1.16 1.64 2.16 2.52 3.12 c0.8 0.84 1.6 1.68 2.48 2.44 c0.8 0.76 1.72 1.36 2.52 2.16 c1.16 1.16 1.6 3.8 0.76 5.24 c-1 1.6 -3.36 1.84 -4.92 1.32 c-0.8 -0.28 -1.52 -0.88 -2.2 -1.36 c-0.4 -0.28 -0.88 -0.4 -1.16 0.08 c-0.16 0.24 -0.24 0.52 -0.32 0.76 c-0.28 1 -0.64 1.92 -0.68 3 c-0.04 1.24 2.32 1.6 3.2 1.8 c3.92 0.92 8.64 0.2 10.68 -3.68 c0.4 -0.8 0.68 -1.64 0.84 -2.52 c0.04 -0.32 0.08 -0.6 0.08 -0.92 c0.16 -2.56 -0.88 -4.72 -2.44 -6.64 c-1.68 -2.08 -3.8 -3.52 -5.76 -5.32 c-1.2 -1.12 -1.64 -2.88 -1.28 -4.48 c0.36 -1.72 2.32 -2.16 3.8 -1.72 c0.44 0.12 0.8 0.32 1.2 0.56 c0.24 0.12 0.48 0.28 0.8 0.28 c0.56 0.04 0.64 -0.4 0.76 -0.84 c0.28 -1 0.76 -1.8 0.96 -2.76 c0.2 -1.08 -0.68 -1.28 -1.56 -1.56 c-1.04 -0.28 -2.04 -0.48 -3.12 -0.44 z"></path></g><g id="SvgjsG7247" featureKey="sloganFeature-0" transform="matrix(1.0288536737918117,0,0,1.0288536737918117,159.84768424839396,54.188989778432486)" fill="url(#SvgjsLinearGradient7251)"><path d="M6.38 11.9 c1.52 0.72 3.5 1.86 3.5 3.92 c0 0.6 -0.1 1.76 -0.76 2.74 c-0.74 1.1 -1.9 1.64 -3.5 1.64 c-1.7 0 -3.68 -0.82 -4.3 -2.68 c-0.02 -0.06 0 -0.12 0.06 -0.16 l1.84 -1.58 c0.08 -0.06 0.2 -0.06 0.26 0.04 c0.04 0.1 0.12 0.26 0.22 0.46 c0.3 0.62 1.02 1.24 1.82 1.24 c0.62 0 1.46 -0.34 1.46 -1.3 c0 -0.92 -1.26 -1.44 -2.04 -1.74 c-0.9 -0.36 -1.82 -0.82 -2.6 -1.5 c-0.82 -0.76 -1.22 -1.6 -1.22 -2.6 c0 -2.5 2.3 -3.76 4.48 -3.76 c1.72 0 3 0.9 3.84 2.68 c0.04 0.08 0 0.18 -0.06 0.22 l-1.78 1.24 c-0.08 0.04 -0.12 0.04 -0.2 -0.06 c-0.68 -0.98 -1.28 -1.44 -2.08 -1.44 c-0.42 0 -1.4 0.16 -1.4 0.9 c0 0.9 1.66 1.36 2.46 1.74 z M2.74 17.42 c0.5 1 1.88 1.58 3 1.58 c1.46 0 2.64 -1 2.8 -2.52 c0.2 -1.86 -1.26 -2.66 -2.7 -3.38 l-0.64 -0.28 c-1.48 -0.66 -2.56 -1.16 -2.56 -2.54 c0 -1.52 1.4 -2.22 2.78 -2.22 c1.26 0 1.92 0.74 2.26 1.2 c0.12 0.16 0.32 0.02 0.2 -0.14 c-0.34 -0.42 -1.06 -1.3 -2.46 -1.3 c-1.58 0 -3.02 0.78 -3.02 2.46 c0 1.5 1.2 2.08 2.72 2.78 l0.62 0.3 c1.98 0.94 2.7 1.82 2.54 3.1 c-0.3 2.04 -1.86 2.3 -2.54 2.3 c-1.5 0 -2.5 -0.9 -2.8 -1.46 c-0.1 -0.1 -0.24 0 -0.2 0.12 z M17.941499999999998 6.800000000000001 c0.1 0 0.18 0.08 0.18 0.18 l0 10.5 l4.32 0 c0.1 0 0.18 0.08 0.18 0.18 l0 2.16 c0 0.1 -0.08 0.18 -0.18 0.18 l-6.78 0 c-0.1 0 -0.16 -0.08 -0.16 -0.18 l0 -12.84 c0 -0.1 0.06 -0.18 0.16 -0.18 l2.28 0 z M16.7015 8.02 l0 10.76 c0 0.04 0.04 0.1 0.12 0.1 l4.62 0 c0.16 0 0.16 -0.26 0 -0.26 l-4.52 0 l0 -10.6 c0 -0.14 -0.22 -0.16 -0.22 0 z M28.202999999999996 20 c-0.1 0 -0.16 -0.08 -0.16 -0.18 l0 -12.84 c0 -0.1 0.06 -0.18 0.16 -0.18 l2.28 0 c0.1 0 0.18 0.08 0.18 0.18 l0 12.84 c0 0.1 -0.08 0.18 -0.18 0.18 l-2.28 0 z M29.242999999999995 8 l0 10.78 c0 0.18 0.22 0.18 0.22 0 l0 -10.78 c0 -0.14 -0.22 -0.14 -0.22 0 z M43.2245 15.379999999999999 l0 -0.62 c0 -0.1 0.08 -0.18 0.18 -0.18 l2.28 0 c0.1 0 0.18 0.08 0.18 0.18 l0 1.26 c0 2.94 -1.58 4.18 -4.56 4.18 c-2.78 0 -4.6 -1.1 -4.6 -4.18 l0 -5.26 c0 -2.96 1.62 -4.14 4.6 -4.14 c2.82 0 4.56 1.08 4.56 4.14 l0 0.42 c0 0.1 -0.08 0.18 -0.18 0.18 l-2.3 0 c-0.1 0 -0.18 -0.08 -0.18 -0.18 l0 -0.32 c0 -1.1 -0.82 -1.56 -1.8 -1.56 l-0.24 0 c-0.66 0 -1.1 0.18 -1.4 0.58 c-0.28 0.38 -0.38 0.88 -0.38 1.54 l0 3.96 c0 1.74 0.98 2.12 1.78 2.12 l0.24 0 c1.26 0 1.78 -0.84 1.82 -2.12 z M41.2645 7.859999999999999 c-2.14 0 -3.38 0.76 -3.38 3.2 l0 4.82 c0 2.22 1.14 3.04 3.38 3.04 c2.1 0 3.36 -0.76 3.36 -3.06 c0 -0.16 -0.24 -0.16 -0.24 0 c0 2.02 -1.1 2.84 -3.12 2.84 c-1.96 0 -3.16 -0.68 -3.16 -2.82 l0 -4.82 c0 -2.08 0.98 -2.98 3.16 -2.98 c2.84 0 2.94 1.8 2.94 2 c0 0.18 0.28 0.2 0.28 0 c0 -1.66 -1.68 -2.22 -3.22 -2.22 z M52.025999999999996 20 c-0.1 0 -0.16 -0.08 -0.16 -0.18 l0 -12.84 c0 -0.1 0.06 -0.18 0.16 -0.18 l6.8 0 c0.1 0 0.18 0.08 0.18 0.18 l0 2.14 c0 0.1 -0.08 0.18 -0.18 0.18 l-4.32 0 l0 2.72 l3.36 0 c0.1 0 0.16 0.08 0.16 0.18 l0 2.18 c0 0.1 -0.06 0.18 -0.16 0.18 l-3.36 0 l0 2.94 l4.32 0 c0.1 0 0.18 0.08 0.18 0.18 l0 2.14 c0 0.1 -0.08 0.18 -0.18 0.18 l-6.8 0 z M53.025999999999996 8.06 l0 10.64 c0 0.12 0.08 0.16 0.16 0.16 l4.6 0 c0.18 0 0.14 -0.24 0 -0.24 l-4.5 0 l0 -5.22 l3.68 0 c0.12 0 0.12 -0.28 0 -0.28 l-3.68 0 l0 -4.96 l4.5 0 c0.14 0 0.18 -0.26 0 -0.26 l-4.6 0 c-0.08 0 -0.16 0.06 -0.16 0.16 z M79.449 6.619999999999999 c1.72 0 2.92 0.38 3.68 1.2 c0.6 0.66 0.88 1.6 0.88 2.94 l0 5.26 c0 1.38 -0.28 2.34 -0.88 2.98 c-0.78 0.8 -1.96 1.2 -3.68 1.2 c-1.78 0 -2.94 -0.4 -3.7 -1.2 c-0.58 -0.64 -0.9 -1.6 -0.9 -2.98 l0 -5.26 c0 -1.34 0.32 -2.28 0.9 -2.96 c0.78 -0.8 1.96 -1.18 3.7 -1.18 z M81.349 15.42 l0 -4 c0 -1.76 -0.94 -2.12 -1.8 -2.12 l-0.24 0 c-1.28 0 -1.78 0.82 -1.78 2.12 l0 4 c0 1.76 0.94 2.14 1.78 2.14 l0.24 0 c1.28 0 1.78 -0.86 1.8 -2.14 z M76.109 10.9 l0 4.96 c0 0.94 0.24 1.72 0.8 2.3 c0.52 0.52 1.32 0.8 2.3 0.8 l0.52 0 c1.88 0 3.1 -1.2 3.1 -3.1 l0 -4.96 c0 -2.04 -1.08 -3.14 -3.1 -3.14 l-0.52 0 c-2.04 0 -3.1 1.1 -3.1 3.14 z M79.729 18.7 l-0.52 0 c-0.94 0 -1.64 -0.24 -2.14 -0.74 s-0.76 -1.2 -0.76 -2.1 l0 -4.96 c0 -1.9 1.02 -2.9 2.9 -2.9 l0.52 0 c1.9 0 2.84 0.98 2.84 2.9 l0 4.96 c0 0.84 -0.26 1.6 -0.8 2.12 c-0.52 0.44 -1.22 0.72 -2.04 0.72 z M91.3305 8 l0 10.78 c0 0.14 0.24 0.18 0.24 0 l0 -5.38 l3.68 0 c0.2 0 0.2 -0.28 0 -0.28 l-3.68 0 l0 -4.96 l4.48 0 c0.14 0 0.18 -0.26 0 -0.26 l-4.6 0 c-0.06 0 -0.12 0.02 -0.12 0.1 z M92.5905 20 l-2.3 0 c-0.1 0 -0.16 -0.08 -0.16 -0.18 l0 -12.84 c0 -0.1 0.06 -0.18 0.16 -0.18 l6.8 0 c0.1 0 0.18 0.08 0.18 0.18 l0 2.14 c0 0.1 -0.08 0.18 -0.18 0.18 l-4.32 0 l0 2.72 l3.36 0 c0.1 0 0.16 0.08 0.16 0.18 l0 2.18 c0 0.1 -0.06 0.18 -0.16 0.18 l-3.36 0 l0 5.26 c0 0.1 -0.08 0.18 -0.18 0.18 z M116.9135 6.800000000000001 l2.3 0 c0.1 0 0.18 0.08 0.18 0.18 l0 9.58 c0 1.94 -1.56 3.62 -3.6 3.62 l-0.5 0 c-0.84 0 -1.66 -0.32 -2.38 -0.9 c-0.6 -0.56 -1.18 -1.3 -1.56 -2.12 c-0.04 -0.1 -0.02 -0.18 0.06 -0.24 l2.1 -1.46 c0.08 -0.06 0.2 -0.06 0.24 0.06 c0.28 0.8 0.76 1.98 1.8 1.98 c1 0 1.18 -1.38 1.18 -2.22 l0 -8.3 c0 -0.1 0.08 -0.18 0.18 -0.18 z M113.1935 17.2 c-0.08 -0.12 -0.3 0 -0.2 0.16 c0.5 0.84 1.06 1.6 2.52 1.6 c1.68 0 2.68 -1.3 2.68 -3.46 l0 -7.5 c0 -0.12 -0.26 -0.14 -0.26 0 l0 7.5 c0 0.98 -0.2 1.8 -0.62 2.36 c-0.42 0.54 -1.02 0.84 -1.8 0.84 c-1.32 0 -1.82 -0.68 -2.32 -1.5 z M129.935 6.619999999999999 c1.72 0 2.92 0.38 3.68 1.2 c0.6 0.66 0.88 1.6 0.88 2.94 l0 5.26 c0 1.38 -0.28 2.34 -0.88 2.98 c-0.78 0.8 -1.96 1.2 -3.68 1.2 c-1.78 0 -2.94 -0.4 -3.7 -1.2 c-0.58 -0.64 -0.9 -1.6 -0.9 -2.98 l0 -5.26 c0 -1.34 0.32 -2.28 0.9 -2.96 c0.78 -0.8 1.96 -1.18 3.7 -1.18 z M131.835 15.42 l0 -4 c0 -1.76 -0.94 -2.12 -1.8 -2.12 l-0.24 0 c-1.28 0 -1.78 0.82 -1.78 2.12 l0 4 c0 1.76 0.94 2.14 1.78 2.14 l0.24 0 c1.28 0 1.78 -0.86 1.8 -2.14 z M126.595 10.9 l0 4.96 c0 0.94 0.24 1.72 0.8 2.3 c0.52 0.52 1.32 0.8 2.3 0.8 l0.52 0 c1.88 0 3.1 -1.2 3.1 -3.1 l0 -4.96 c0 -2.04 -1.08 -3.14 -3.1 -3.14 l-0.52 0 c-2.04 0 -3.1 1.1 -3.1 3.14 z M130.215 18.7 l-0.52 0 c-0.94 0 -1.64 -0.24 -2.14 -0.74 s-0.76 -1.2 -0.76 -2.1 l0 -4.96 c0 -1.9 1.02 -2.9 2.9 -2.9 l0.52 0 c1.9 0 2.84 0.98 2.84 2.9 l0 4.96 c0 0.84 -0.26 1.6 -0.8 2.12 c-0.52 0.44 -1.22 0.72 -2.04 0.72 z M142.1165 6.9 l1.74 3.36 l1.7 -3.36 c0.06 -0.1 0.08 -0.1 0.16 -0.1 l2.24 0 c0.12 0 0.2 0.12 0.16 0.22 l-2.9 6.74 l0 6.06 c0 0.1 -0.08 0.18 -0.18 0.18 l-2.36 0 c-0.06 0 -0.14 -0.08 -0.14 -0.18 l0 -6.06 l-2.98 -6.7 c-0.04 -0.14 0.02 -0.26 0.16 -0.26 l2.24 0 c0.08 0 0.1 0 0.16 0.1 z M143.9565 13.3 l2.5 -5.2 c0.06 -0.12 -0.14 -0.22 -0.22 -0.08 l-2.38 4.98 l-2.44 -4.98 c-0.08 -0.14 -0.3 -0.04 -0.24 0.1 l2.56 5.18 l0 5.52 c0 0.14 0.22 0.16 0.22 0 l0 -5.52 z"></path></g>
			</g>
		</svg>
	