<svg xmlns="http://www.w3.org/2000/svg" version="1.1" xmlns:xlink="http://www.w3.org/1999/xlink" xmlns:svgjs="http://svgjs.dev/svgjs" width="1000" height="1000" viewBox="0 0 1000 1000"><rect width="1000" height="1000" fill="#ffffff"></rect><g transform="matrix(0.7,0,0,0.7,149.57605563665675,386.3966682061976)"><svg viewBox="0 0 396 129" data-background-color="#fbfbfb" preserveAspectRatio="xMidYMid meet" height="325" width="1000" xmlns="http://www.w3.org/2000/svg" xmlns:xlink="http://www.w3.org/1999/xlink"><g id="tight-bounds" transform="matrix(1,0,0,1,0.24008861730862918,-0.08292663127767241)"><svg viewBox="0 0 395.52 129.16609233940733" height="129.16609233940733" width="395.52"><g><svg viewBox="0 0 395.52 129.16609233940733" height="129.16609233940733" width="395.52"><g><svg viewBox="0 0 395.52 129.16609233940733" height="129.16609233940733" width="395.52"><g id="textblocktransform"><svg viewBox="0 0 395.52 129.16609233940733" height="129.16609233940733" width="395.52" id="textblock"><g><svg viewBox="0 0 395.52 96.65029095101711" height="96.65029095101711" width="395.52"><path d="M394.594 20.73C392.735 10.697 387.435 7.908 387.435 7.908 371.165-2.425 350.86-0.198 332.619 1.287 300.414 1.347 268.339 3.554 236.208 4.738 168.767 4.919 100.749 1.949 33.643 9.273 27.339 11.52-6.54 9.714 1.121 22.014 3.129 27.13 10.456 32.808 10.232 37.504 11.236 38.326 12.631 36.44 13.226 37.624 15.309 40.814 18.711 39.309 21.501 41.195 17.614 46.232 20.403 50.425 23.062 54.819 18.377 55.963 12.371 55.421 9.675 59.213 9.396 61.962 7.89 61.441 6.235 61.32 5.026 61.24 2.59 61.541 2.999 62.404 4.394 65.353-1.594 67.059 2.162 69.948-0.422 73.078 3.948 75.787 3.353 79.178 3.278 79.86 3.687 80.442 4.338 80.602 7.22 81.465 3.018 83.15 3.464 84.976 33.029 97.456 65.104 88.829 95.394 94.567 103.259 90.554 97.346 95.992 100.489 95.149 102.943 94.166 104.728 98.239 107.499 95.932 107.927 95.269 107.276 93.704 108.8 94.005 109.6 94.166 110.307 94.126 110.418 93.203 110.586 91.818 109.117 92.681 108.726 91.959 112.947 88.307 111.906 96.995 115.866 96.634 115.68 95.57 114.528 94.045 116.889 94.246 119.232 92.721 119.306 91.457 121.389 94.888 121.463 95.631 121.835 96.152 122.43 96.513 128.938 92.781 135.409 97.838 142.233 96.152 146.417 94.306 150.433 97.155 154.672 96.453 156.16 95.891 157.666 94.888 159.098 96.574 176.632 96.935 195.319 95.43 211.943 96.634 256.364 94.387 303.835 97.557 350.674 94.587 361.719 93.444 373.192 91.818 383.958 90.514 383.958 90.514 392.679 86.943 392.679 70.891S394.538 56.846 394.817 44.065C395.096 31.284 396.398 30.762 394.538 20.73Z" opacity="1" fill="#000000" data-fill-palette-color="tertiary"></path><g transform="matrix(1,0,0,1,55.76832,26.068561146666667)"><svg width="283.98335999999995" viewBox="2.0999999046325684 -45.45000076293945 293.1300048828125 45.95000076293945" height="44.51316865768378" data-palette-color="#f8f5f5"><path d="M2.4 0Q2.1 0 2.1-0.6L2.1-0.6Q2.1-1.75 3.65-3.2L3.65-3.2Q4.7-4.2 5.13-5.18 5.55-6.15 5.95-8.8L5.95-8.8 8.6-25.15Q8.75-26.15 9.65-27.13 10.55-28.1 11.8-28.75 13.05-29.4 14.2-29.4L14.2-29.4Q15-29.4 15-28.9L15-28.9Q15-28.65 14.58-27.8 14.15-26.95 13.85-24.8L13.85-24.8 12.6-17.15Q13.35-17 14.5-17L14.5-17Q18.05-17 20.15-19.2 22.25-21.4 22.25-25L22.25-25Q22.25-28.25 20.4-29.8 18.55-31.35 14.8-31.35L14.8-31.35Q8.65-31.35 4.35-27.3L4.35-27.3Q4.15-27.1 3.75-26.7 3.35-26.3 3.1-26.18 2.85-26.05 2.6-26.05L2.6-26.05Q2.3-26.05 2.2-26.2 2.1-26.35 2.1-26.65L2.1-26.65Q2.1-27.1 2.35-27.65L2.35-27.65Q3.15-29.6 5-31.33 6.85-33.05 9.7-34.13 12.55-35.2 16.1-35.2L16.1-35.2Q21.3-35.2 24.43-32.98 27.55-30.75 27.55-26.8L27.55-26.8Q27.55-23.4 25.53-20.33 23.5-17.25 19.95-15.3 16.4-13.35 12.1-13.2L12.1-13.2 10.95-6.55Q10.9-5.95 10.58-5.35 10.25-4.75 9.85-4.35L9.85-4.35 9.85-4.3Q10.55-3.85 11.85-3.85L11.85-3.85Q12.55-3.85 13.25-4.13 13.95-4.4 14.15-4.4L14.15-4.4Q14.4-4.4 14.48-4.3 14.55-4.2 14.55-3.95L14.55-3.95Q14.55-3.6 14.38-3.28 14.2-2.95 13.95-2.6L13.95-2.6Q11.95 0 10.05 0L10.05 0Q9.55 0 8.88-0.15 8.2-0.3 8-0.35L8-0.35Q6.65-0.8 5.6-0.8L5.6-0.8Q4.5-0.8 3.55-0.4 2.6 0 2.4 0L2.4 0ZM29.3 0Q28.9 0 28.9-0.5L28.9-0.5Q28.9-1.2 29.47-2.25 30.05-3.3 30.85-3.7L30.85-3.7Q31.05-3.8 31.77-4.13 32.5-4.45 32.75-4.7L32.75-4.7Q33.25-5.1 33.5-6.05 33.75-7 33.95-8.8L33.95-8.8 37.1-30.9Q36.1-30.9 35.05-30.75L35.05-30.75Q34-30.65 33.1-30.45 32.2-30.25 31.9-30.25L31.9-30.25Q31.45-30.25 31.45-30.8L31.45-30.8Q31.45-31.4 31.85-32.1L31.85-32.1Q33.15-34.7 36.05-34.7L36.05-34.7 38.6-34.7Q42.15-34.7 44.05-34.85L44.05-34.85Q47.65-35.1 47.4-35.1L47.4-35.1Q47.8-35.1 47.8-34.6L47.8-34.6Q47.8-34.2 47.4-33.55L47.4-33.55Q47.15-33.15 46.8-32.5 46.45-31.85 46.05-31.63 45.65-31.4 44.9-31.3L44.9-31.3 43.65-31.2Q43.15-31.2 42.45-31.1L42.45-31.1 38.95-6.95Q38.85-6.1 38.55-5.38 38.25-4.65 37.85-4.3L37.85-4.3 37.85-4.2Q39.85-3.9 40.4-3.9L40.4-3.9Q41.35-3.9 41.92-4.15 42.5-4.4 42.6-4.4L42.6-4.4Q43-4.4 43-3.95L43-3.95Q43-3.55 42.35-2.5L42.35-2.5Q40.6 0 38.4 0L38.4 0Q37.85 0 36.55-0.3L36.55-0.3Q34.75-0.8 33.4-0.8L33.4-0.8Q31.8-0.8 30.65-0.4 29.5 0 29.3 0L29.3 0ZM48.25 0Q47.75 0 47.47-0.6 47.2-1.2 47.2-1.85L47.2-1.85Q47.2-2.5 47.7-3.35L47.7-3.35Q48.15-4.15 50.75-7.35L50.75-7.35Q51.75-8.7 53.2-10.4L53.2-10.4 67.7-28.5 67.35-28.5Q66.45-28.5 65.67-28.7 64.9-28.9 63.8-29.3L63.8-29.3Q62.45-29.75 61.42-30 60.4-30.25 59-30.25L59-30.25Q55.25-30.25 53.1-27.8L53.1-27.8Q52.85-27.5 52.55-27.08 52.25-26.65 52-26.65L52-26.65Q51.45-26.65 51.45-27.65L51.45-27.65Q51.45-28.1 51.5-28.35L51.5-28.35Q52-31.35 54.15-33.02 56.3-34.7 59.75-34.7L59.75-34.7Q61-34.7 62-34.5 63-34.3 64.75-33.85L64.75-33.85Q67.4-33.1 69.1-33.1L69.1-33.1Q70.6-33.1 71.5-33.5 72.4-33.9 73.02-34.4 73.65-34.9 73.8-34.9L73.8-34.9Q74.15-34.9 74.47-34.27 74.8-33.65 74.8-33.1L74.8-33.1Q74.8-32.45 74.37-31.75 73.95-31.05 73.3-30.2L73.3-30.2 54.75-7.05 54.85-7Q55.95-7.55 57.5-7.55L57.5-7.55Q58.4-7.55 59.25-7.28 60.1-7 61.35-6.5L61.35-6.5Q62.9-5.85 63.9-5.55 64.9-5.25 66-5.25L66-5.25Q68.95-5.25 70.2-7.85L70.2-7.85Q70.45-8.45 70.62-8.65 70.8-8.85 71.05-8.85L71.05-8.85Q71.7-8.85 71.7-7.3L71.7-7.3Q71.7-5.15 70.72-3.48 69.75-1.8 68.17-0.9 66.6 0 64.85 0L64.85 0Q63.7 0 62.62-0.35 61.55-0.7 59.8-1.4L59.8-1.4Q57.9-2.15 56.77-2.5 55.65-2.85 54.45-2.85L54.45-2.85Q52.85-2.85 51.67-2.25 50.5-1.65 49.3-0.65L49.3-0.65Q48.45 0 48.25 0L48.25 0ZM75.09 0Q74.59 0 74.32-0.6 74.04-1.2 74.04-1.85L74.04-1.85Q74.04-2.5 74.54-3.35L74.54-3.35Q74.99-4.15 77.59-7.35L77.59-7.35Q78.59-8.7 80.04-10.4L80.04-10.4 94.54-28.5 94.19-28.5Q93.29-28.5 92.52-28.7 91.74-28.9 90.64-29.3L90.64-29.3Q89.29-29.75 88.27-30 87.24-30.25 85.84-30.25L85.84-30.25Q82.09-30.25 79.94-27.8L79.94-27.8Q79.69-27.5 79.39-27.08 79.09-26.65 78.84-26.65L78.84-26.65Q78.29-26.65 78.29-27.65L78.29-27.65Q78.29-28.1 78.34-28.35L78.34-28.35Q78.84-31.35 80.99-33.02 83.14-34.7 86.59-34.7L86.59-34.7Q87.84-34.7 88.84-34.5 89.84-34.3 91.59-33.85L91.59-33.85Q94.24-33.1 95.94-33.1L95.94-33.1Q97.44-33.1 98.34-33.5 99.24-33.9 99.87-34.4 100.49-34.9 100.64-34.9L100.64-34.9Q100.99-34.9 101.32-34.27 101.64-33.65 101.64-33.1L101.64-33.1Q101.64-32.45 101.22-31.75 100.79-31.05 100.14-30.2L100.14-30.2 81.59-7.05 81.69-7Q82.79-7.55 84.34-7.55L84.34-7.55Q85.24-7.55 86.09-7.28 86.94-7 88.19-6.5L88.19-6.5Q89.74-5.85 90.74-5.55 91.74-5.25 92.84-5.25L92.84-5.25Q95.79-5.25 97.04-7.85L97.04-7.85Q97.29-8.45 97.47-8.65 97.64-8.85 97.89-8.85L97.89-8.85Q98.54-8.85 98.54-7.3L98.54-7.3Q98.54-5.15 97.57-3.48 96.59-1.8 95.02-0.9 93.44 0 91.69 0L91.69 0Q90.54 0 89.47-0.35 88.39-0.7 86.64-1.4L86.64-1.4Q84.74-2.15 83.62-2.5 82.49-2.85 81.29-2.85L81.29-2.85Q79.69-2.85 78.52-2.25 77.34-1.65 76.14-0.65L76.14-0.65Q75.29 0 75.09 0L75.09 0ZM121.54 0.5Q120.24 0.5 119.54-0.33 118.84-1.15 118.44-3L118.44-3Q118.04-4.7 117.92-6.75 117.79-8.8 117.74-11.7L117.74-11.7 116.74-11.2 111.54-11.2Q110.74-8.85 109.29-6.98 107.84-5.1 106.09-4.15L106.09-4.15 106.09-4.1Q106.79-3.8 107.59-3.8L107.59-3.8Q108.19-3.8 108.89-4.05 109.59-4.3 109.74-4.3L109.74-4.3Q110.04-4.3 110.04-3.85L110.04-3.85Q110.04-3.2 109.54-2.5L109.54-2.5Q108.74-1.25 107.74-0.63 106.74 0 105.79 0L105.79 0Q105.19 0 103.59-0.4L103.59-0.4Q101.89-0.8 101.29-0.8L101.29-0.8Q100.54-0.8 99.52-0.4 98.49 0 98.29 0L98.29 0Q98.09 0 97.97-0.15 97.84-0.3 97.84-0.5L97.84-0.5Q97.84-1.05 98.29-2 98.74-2.95 99.34-3.2L99.34-3.2Q99.79-3.45 100.79-3.7L100.79-3.7Q102.74-4.4 104.04-5.9 105.34-7.4 106.29-9.6 107.24-11.8 108.69-15.95L108.69-15.95Q110.14-20.2 111.14-22.63 112.14-25.05 113.54-27.25 114.94-29.45 116.89-31.05L116.89-31.05 116.89-31.1Q116.44-31.1 115.14-31.3L115.14-31.3Q113.04-31.55 112.24-31.55L112.24-31.55Q109.79-31.55 107.87-30.53 105.94-29.5 104.74-27.55L104.74-27.55Q104.29-26.95 104.12-26.75 103.94-26.55 103.64-26.55L103.64-26.55Q103.24-26.55 103.24-27.15L103.24-27.15Q103.24-27.75 103.44-28.35L103.44-28.35Q104.34-31.45 107.07-33.33 109.79-35.2 113.69-35.2L113.69-35.2Q115.24-35.2 118.04-34.7L118.04-34.7Q120.94-34.2 122.39-34.2L122.39-34.2Q124.44-34.2 125.84-34.7L125.84-34.7 125.84-34.65Q124.44-32.2 123.72-27.45 122.99-22.7 122.99-16.25L122.99-16.25Q122.99-10.5 123.64-6.1L123.64-6.1Q123.74-5.15 124.07-4.78 124.39-4.4 125.04-4.4L125.04-4.4Q125.64-4.4 126.22-4.67 126.79-4.95 127.59-5.45L127.59-5.45Q128.34-6 128.59-6L128.59-6Q128.89-6 128.89-5.45L128.89-5.45Q128.89-4.85 128.44-4.1L128.44-4.1Q127.39-2.3 125.37-0.9 123.34 0.5 121.54 0.5L121.54 0.5ZM112.84-15.4L117.74-15.4Q117.89-19.95 118.32-23.25 118.74-26.55 119.59-29.7L119.59-29.7 119.54-29.7Q117.44-28 115.92-24.9 114.39-21.8 113.29-17.15L113.29-17.15 112.84-15.4ZM151.64 0Q151.24 0 151.24-0.6L151.24-0.6Q151.24-1.75 152.89-3.2L152.89-3.2Q153.94-4.25 154.34-5.2 154.74-6.15 155.24-8.8L155.24-8.8 158.99-30.2 155.99-30.2Q152.44-30.2 151.11-29.45 149.79-28.7 149.79-26.7L149.79-26.7Q149.79-25.45 150.19-24.55 150.59-23.65 150.59-23.45L150.59-23.45Q150.59-22.85 149.86-21.75 149.14-20.65 148.24-19.8 147.34-18.95 146.79-18.95L146.79-18.95Q146.59-18.95 146.46-19.13 146.34-19.3 146.29-19.35L146.29-19.35Q145.49-21.05 145.49-23.45L145.49-23.45Q145.49-26.6 147.09-29.18 148.69-31.75 151.59-33.23 154.49-34.7 158.19-34.7L158.19-34.7 168.89-34.7Q171.94-34.7 173.16-35.35 174.39-36 174.39-37.7L174.39-37.7Q174.39-38.85 173.89-39.8 173.39-40.75 173.39-41L173.39-41Q173.39-41.4 174.06-42.5 174.74-43.6 175.54-44.53 176.34-45.45 176.74-45.45L176.74-45.45Q176.89-45.45 176.99-45.38 177.09-45.3 177.14-45.25L177.14-45.25Q177.84-44.4 178.19-43.08 178.54-41.75 178.54-40.3L178.54-40.3Q178.54-35.6 175.06-32.9 171.59-30.2 165.79-30.2L165.79-30.2 164.34-30.2 160.19-6.55Q159.84-5.05 158.99-4.35L158.99-4.35 158.99-4.3Q159.84-3.85 160.99-3.85L160.99-3.85Q161.69-3.85 162.41-4.13 163.14-4.4 163.34-4.4L163.34-4.4Q163.59-4.4 163.66-4.3 163.74-4.2 163.74-3.95L163.74-3.95Q163.74-3.5 163.49-3.1 163.24-2.7 163.19-2.6L163.19-2.6Q161.99-1.15 161.04-0.58 160.09 0 159.19 0L159.19 0Q158.74 0 158.11-0.15 157.49-0.3 157.24-0.35L157.24-0.35Q155.79-0.8 154.74-0.8L154.74-0.8Q153.64-0.8 152.74-0.4 151.84 0 151.64 0L151.64 0ZM181.23 0.5Q176.68 0.5 174.28-2.85 171.88-6.2 171.88-11.4L171.88-11.4Q171.88-16.65 174.16-22.23 176.43-27.8 180.46-31.5 184.48-35.2 189.38-35.2L189.38-35.2Q193.98-35.2 196.46-31.8 198.93-28.4 198.93-22.55L198.93-22.55Q198.93-16.5 196.41-11.18 193.88-5.85 189.78-2.68 185.68 0.5 181.23 0.5L181.23 0.5ZM183.48-3.35Q186.43-3.35 188.61-5.95 190.78-8.55 191.88-12.65 192.98-16.75 192.98-21.15L192.98-21.15Q192.98-25.95 191.61-28.65 190.23-31.35 187.53-31.35L187.53-31.35Q184.83-31.35 182.61-28.88 180.38-26.4 179.11-22.23 177.83-18.05 177.83-13.2L177.83-13.2Q177.83-3.35 183.48-3.35L183.48-3.35ZM208.38 0.5Q207.93 0.5 207.83 0.35 207.73 0.2 207.83-0.2L207.83-0.2Q208.78-8.8 209.03-12.25 209.28-15.7 209.28-20.75L209.28-20.75Q209.28-24.55 209.13-26.43 208.98-28.3 208.53-29.1 208.08-29.9 207.13-29.9L207.13-29.9Q205.83-29.9 204.96-28.78 204.08-27.65 203.23-25.65L203.23-25.65Q203.03-25.1 202.83-24.9 202.63-24.7 202.33-24.7L202.33-24.7Q202.08-24.7 202.01-24.9 201.93-25.1 201.93-25.55L201.93-25.55Q201.93-27.7 203.01-29.95 204.08-32.2 205.86-33.7 207.63-35.2 209.68-35.2L209.68-35.2Q211.63-35.2 212.63-33.65 213.63-32.1 214.01-29.08 214.38-26.05 214.38-20.95L214.38-20.95Q214.38-16.2 214.18-14.4L214.18-14.4 214.23-14.4 219.48-25.2 221.53-29.5Q222.13-30.65 223.11-31.68 224.08-32.7 225.03-33.33 225.98-33.95 226.48-33.95L226.48-33.95Q226.83-33.95 226.78-33.55L226.78-33.55Q226.28-30.45 226.28-28.15L226.28-28.15Q226.28-24.65 226.78-16.75L226.78-16.75Q227.13-11.2 227.23-10.55L227.23-10.55 227.28-10.55Q227.43-10.9 227.73-11.53 228.03-12.15 228.38-12.9L228.38-12.9 230.83-18.05Q232.13-20.9 232.83-23 233.53-25.1 233.53-26.65L233.53-26.65Q233.53-27.9 233.16-28.55 232.78-29.2 232.41-29.5 232.03-29.8 231.98-29.9L231.98-29.9Q231.83-30.25 232.66-31.58 233.48-32.9 234.58-34.05 235.68-35.2 236.33-35.2L236.33-35.2Q236.83-35.2 237.51-34.52 238.18-33.85 238.66-32.77 239.13-31.7 239.13-30.55L239.13-30.55Q239.13-29.4 238.61-27.9 238.08-26.4 236.88-23.7L236.88-23.7 227.88-4.6Q226.78-2.15 225.03-0.55L225.03-0.55Q223.88 0.5 223.33 0.5L223.33 0.5Q222.88 0.5 222.78 0.1 222.68-0.3 222.68-1.07 222.68-1.85 222.68-2.15L222.68-2.15Q222.68-5.2 221.93-14.1L221.93-14.1Q221.53-18.6 221.38-21.5L221.38-21.5 221.33-21.5Q219.63-18.7 218.18-15.55 216.73-12.4 215.73-10.08 214.73-7.75 214.48-7.15L214.48-7.15 213.33-4.45Q212.08-1.8 209.98-0.2L209.98-0.2Q209.88-0.15 209.41 0.18 208.93 0.5 208.38 0.5L208.38 0.5ZM260.63 0.5Q260.28 0.5 260.15 0.38 260.03 0.25 260.03-0.05L260.03-0.05Q260.03-0.2 260.23-1.2L260.23-1.2Q260.68-3.1 260.68-4.55L260.68-4.55Q260.68-6 260.08-7.4L260.08-7.4Q259.08-9.2 257.23-12.9L257.23-12.9 254.08-19.2Q253.28-20.65 252.48-23L252.48-23 252.38-23 249.68-6.5Q249.43-4.95 248.53-4.3L248.53-4.3 248.53-4.2Q249.48-3.85 250.43-3.85L250.43-3.85Q251.13-3.85 251.75-4.13 252.38-4.4 252.63-4.4L252.63-4.4Q253.03-4.4 253.03-3.95L253.03-3.95Q253.03-3.4 252.38-2.6L252.38-2.6Q251.38-1.1 250.55-0.55 249.73 0 248.78 0L248.78 0Q248.18 0 246.88-0.4L246.88-0.4Q245.48-0.8 244.63-0.8L244.63-0.8Q243.58-0.8 242.63-0.4 241.68 0 241.48 0L241.48 0Q241.18 0 241.18-0.6L241.18-0.6Q241.18-1.75 242.73-3.2L242.73-3.2Q243.53-3.95 243.9-4.5 244.28-5.05 244.53-5.95 244.78-6.85 245.08-8.8L245.08-8.8 248.73-30.25 248.43-30.25Q248.13-30.25 247.43-30.35L247.43-30.35Q246.33-30.55 245.33-30.55L245.33-30.55Q243.88-30.55 242.9-30.15 241.93-29.75 241.13-28.7L241.13-28.7Q240.88-28.35 240.63-28.13 240.38-27.9 240.13-27.9L240.13-27.9Q239.73-27.9 239.73-28.4L239.73-28.4Q239.73-28.75 239.8-29.05 239.88-29.35 239.88-29.45L239.88-29.45Q240.33-31.8 242.33-33.25 244.33-34.7 247.18-34.7L247.18-34.7Q247.78-34.7 249.08-34.6L249.08-34.6Q250.23-34.45 251.48-34.45L251.48-34.45Q251.93-34.45 253.73-34.6L253.73-34.6Q254.63-34.7 254.98-34.7L254.98-34.7Q254.63-33.7 254.63-32.45L254.63-32.45Q254.63-30.2 255.5-27.95 256.38-25.7 258.73-21L258.73-21 261.33-15.8 262.03-14.35Q262.43-13.55 262.73-12.85L262.73-12.85 262.83-12.85 265.23-27.9Q266.08-33.15 267.55-36.3 269.03-39.45 271.18-41.25L271.18-41.25Q273.03-42.75 275.03-43.25 277.03-43.75 279.98-43.9L279.98-43.9Q281.13-43.9 281.73-44.1L281.73-44.1Q282.03-44.2 282.3-44.3 282.58-44.4 282.73-44.4L282.73-44.4Q283.08-44.4 283.08-43.85L283.08-43.85Q283.08-42.65 281.9-41.75 280.73-40.85 279.18-40.8L279.18-40.8Q277.08-40.65 275.93-40.28 274.78-39.9 273.73-38.75L273.73-38.75Q272.48-37.4 271.63-34.98 270.78-32.55 270.13-28.7L270.13-28.7 266.23-5.95Q265.98-4.55 265.03-3.03 264.08-1.5 262.85-0.5 261.63 0.5 260.63 0.5L260.63 0.5ZM280.18 0.5Q277.78 0.5 276-0.4 274.23-1.3 273.3-2.63 272.38-3.95 272.28-5.25L272.28-5.25Q272.28-6.5 273-7.98 273.73-9.45 274.73-10.5 275.73-11.55 276.28-11.55L276.28-11.55Q276.53-11.55 276.63-10.95L276.63-10.95Q277.03-7.9 277.45-6.33 277.88-4.75 278.85-3.93 279.83-3.1 281.78-3.1L281.78-3.1Q284.48-3.1 285.85-4.5 287.23-5.9 287.23-8.3L287.23-8.3Q287.23-9.9 286.63-11.1 286.03-12.3 284.48-14.25L284.48-14.25 279.73-19.85Q278.63-21.15 278.2-22.28 277.78-23.4 277.78-24.8L277.78-24.8Q277.78-27.4 279.08-29.8 280.38-32.2 282.9-33.7 285.43-35.2 288.93-35.2L288.93-35.2Q291.88-35.2 293.55-34.05 295.23-32.9 295.23-30.8L295.23-30.8Q295.23-29.95 294.98-29.13 294.73-28.3 294.33-27.65L294.33-27.65Q293.78-26.8 293.35-26.45 292.93-26.1 292.43-26.1L292.43-26.1Q291.88-26.1 291.68-26.58 291.48-27.05 291.38-27.9L291.38-27.9Q291.23-29.8 290.35-30.83 289.48-31.85 287.33-31.85L287.33-31.85Q285.08-31.85 283.83-30.73 282.58-29.6 282.58-27.8L282.58-27.8Q282.58-26.75 282.98-25.88 283.38-25 284.23-24L284.23-24 289.03-18.5Q290.78-16.55 291.58-14.75 292.38-12.95 292.38-10.95L292.38-10.95Q292.38-7.95 290.68-5.3 288.98-2.65 286.15-1.07 283.33 0.5 280.18 0.5L280.18 0.5Z" opacity="1" transform="matrix(1,0,0,1,0,0)" fill="#ffffff" class="wordmark-text-0" data-fill-palette-color="quaternary" id="text-0"></path></svg></g></svg></g><g transform="matrix(1,0,0,1,104.715437532644,107.15878175504847)"><svg viewBox="0 0 186.08912493471198 22.007310584358862" height="22.007310584358862" width="186.08912493471198"><g transform="matrix(1,0,0,1,0,0)"><svg width="186.08912493471198" viewBox="2.3399999141693115 -37.54999923706055 317.489990234375 37.54999923706055" height="22.007310584358862" data-palette-color="#050505"><path d="M37.33-10.3L37.33-10.3Q37.33-8.42 36.85-6.92 36.38-5.42 35.6-4.27 34.81-3.13 33.76-2.32 32.71-1.51 31.59-1 30.47-0.49 29.31-0.24 28.15 0 27.12 0L27.12 0 2.64 0 2.64-6.35 27.12-6.35Q28.96-6.35 29.97-7.42 30.98-8.5 30.98-10.3L30.98-10.3Q30.98-11.18 30.71-11.91 30.44-12.65 29.94-13.18 29.44-13.72 28.72-14.01 28-14.31 27.12-14.31L27.12-14.31 12.52-14.31Q10.99-14.31 9.2-14.86 7.42-15.41 5.9-16.63 4.37-17.85 3.36-19.82 2.34-21.8 2.34-24.66L2.34-24.66Q2.34-27.51 3.36-29.48 4.37-31.45 5.9-32.68 7.42-33.91 9.2-34.46 10.99-35.01 12.52-35.01L12.52-35.01 34.13-35.01 34.13-28.66 12.52-28.66Q10.72-28.66 9.7-27.56 8.69-26.46 8.69-24.66L8.69-24.66Q8.69-22.83 9.7-21.77 10.72-20.7 12.52-20.7L12.52-20.7 27.12-20.7 27.17-20.7Q28.2-20.68 29.35-20.42 30.49-20.17 31.63-19.63 32.76-19.09 33.79-18.27 34.81-17.46 35.61-16.31 36.4-15.16 36.87-13.67 37.33-12.18 37.33-10.3ZM48.34-37.55L48.34-31.81 41.99-31.81 41.99-37.55 48.34-37.55ZM48.34-26.39L48.34 0 41.99 0 41.99-26.39 48.34-26.39ZM83.66-14.65L83.66 0 77.31 0 77.31-14.65Q77.31-15.89 76.89-16.88 76.46-17.87 75.73-18.58 75-19.29 74.01-19.67 73.02-20.04 71.87-20.04L71.87-20.04 60.76-20.04 60.76 0 54.41 0 54.41-23.24Q54.41-23.9 54.66-24.48 54.9-25.05 55.34-25.48 55.78-25.9 56.37-26.15 56.95-26.39 57.61-26.39L57.61-26.39 71.92-26.39Q73.12-26.39 74.45-26.12 75.78-25.85 77.08-25.26 78.39-24.66 79.57-23.74 80.76-22.83 81.67-21.52 82.59-20.21 83.12-18.51 83.66-16.8 83.66-14.65L83.66-14.65ZM114.79-6.35L114.79 0 97.58 0Q96.26 0 94.69-0.46 93.13-0.93 91.8-1.99 90.47-3.05 89.58-4.75 88.69-6.45 88.69-8.91L88.69-8.91 88.69-17.5Q88.69-18.41 88.9-19.41 89.1-20.41 89.54-21.4 89.98-22.39 90.68-23.29 91.37-24.19 92.36-24.88 93.35-25.56 94.65-25.98 95.94-26.39 97.58-26.39L97.58-26.39 114.79-26.39 114.79-20.04 97.58-20.04Q96.33-20.04 95.68-19.41 95.04-18.77 95.04-17.46L95.04-17.46 95.04-8.91Q95.04-7.67 95.7-7.01 96.35-6.35 97.62-6.35L97.62-6.35 114.79-6.35ZM148.23-17.65L148.23-17.65Q148.23-16.33 147.77-14.81 147.3-13.28 146.27-11.98 145.23-10.67 143.56-9.79 141.88-8.91 139.49-8.91L139.49-8.91 128.04-8.91 128.04-14.94 139.49-14.94Q140.79-14.94 141.49-15.73 142.2-16.53 142.2-17.7L142.2-17.7Q142.2-18.95 141.41-19.65 140.62-20.36 139.49-20.36L139.49-20.36 128.04-20.36Q126.75-20.36 126.04-19.57 125.33-18.77 125.33-17.6L125.33-17.6 125.33-8.74Q125.33-7.47 126.13-6.76 126.92-6.05 128.09-6.05L128.09-6.05 139.49-6.05 139.49 0 128.04 0Q126.72 0 125.2-0.46 123.67-0.93 122.37-1.97 121.06-3 120.18-4.68 119.3-6.35 119.3-8.74L119.3-8.74 119.3-17.65Q119.3-18.97 119.77-20.5 120.23-22.02 121.27-23.33 122.3-24.63 123.98-25.51 125.65-26.39 128.04-26.39L128.04-26.39 139.49-26.39Q140.81-26.39 142.34-25.93 143.86-25.46 145.17-24.43 146.47-23.39 147.35-21.72 148.23-20.04 148.23-17.65ZM200.52-6.35L200.52 0 168.37 0 168.37-11.74Q168.37-12.65 168.58-13.66 168.78-14.67 169.22-15.67 169.66-16.67 170.36-17.58 171.05-18.48 172.04-19.18 173.03-19.87 174.33-20.29 175.62-20.7 177.26-20.7L177.26-20.7 191.56-20.7Q192.86-20.7 193.48-21.35 194.1-22 194.1-23.24L194.1-23.24 194.1-26.05Q194.1-27.34 193.47-28 192.83-28.66 191.61-28.66L191.61-28.66 171.23-28.66 171.23-35.01 191.61-35.01Q193.22-35.01 194.52-34.59 195.81-34.18 196.8-33.48 197.79-32.79 198.5-31.88 199.2-30.98 199.66-29.99 200.11-29 200.31-27.99 200.52-26.98 200.52-26.1L200.52-26.1 200.52-23.24Q200.52-20.78 199.63-19.08 198.74-17.38 197.4-16.32 196.05-15.26 194.5-14.78 192.95-14.31 191.61-14.31L191.61-14.31 177.26-14.31Q176.47-14.31 176.01-14.09 175.55-13.87 175.29-13.5 175.03-13.13 174.91-12.67 174.79-12.21 174.72-11.74L174.72-11.74 174.72-6.35 200.52-6.35ZM246.93-20.36L246.93-14.65Q246.93-12.5 246.38-10.58 245.83-8.67 244.83-7.03 243.83-5.4 242.46-4.1 241.1-2.81 239.47-1.89 237.85-0.98 236.02-0.49 234.19 0 232.28 0L232.28 0 220.83 0Q218.9 0 217.07-0.49 215.24-0.98 213.62-1.89 211.99-2.81 210.63-4.1 209.26-5.4 208.27-7.03 207.28-8.67 206.73-10.58 206.18-12.5 206.18-14.65L206.18-14.65 206.18-20.36Q206.18-23.58 207.39-26.27 208.6-28.96 210.63-30.9 212.65-32.84 215.3-33.92 217.95-35.01 220.83-35.01L220.83-35.01 232.28-35.01Q234.19-35.01 236.02-34.52 237.85-34.03 239.47-33.12 241.1-32.2 242.46-30.91 243.83-29.61 244.83-27.98 245.83-26.34 246.38-24.43 246.93-22.51 246.93-20.36L246.93-20.36ZM240.53-14.65L240.53-20.36Q240.53-22.24 239.85-23.78 239.17-25.32 238.03-26.42 236.9-27.51 235.41-28.1 233.92-28.69 232.28-28.66L232.28-28.66 220.83-28.66Q219.25-28.69 217.74-28.11 216.24-27.54 215.08-26.45 213.92-25.37 213.23-23.82 212.53-22.27 212.53-20.36L212.53-20.36 212.53-14.65Q212.53-12.74 213.21-11.21 213.9-9.67 215.05-8.58 216.19-7.5 217.69-6.91 219.2-6.32 220.83-6.35L220.83-6.35 232.28-6.35Q234.16-6.35 235.69-6.97 237.21-7.59 238.29-8.69 239.36-9.79 239.95-11.32 240.53-12.84 240.53-14.65L240.53-14.65ZM237.78-25L237.78-25Q238.14-24.46 238.26-23.84 238.39-23.22 238.26-22.62 238.14-22.02 237.79-21.5 237.43-20.97 236.87-20.61L236.87-20.61 219.73-9.16Q219.32-8.84 218.88-8.72 218.44-8.59 217.98-8.59L217.98-8.59Q217.19-8.59 216.49-8.96 215.78-9.33 215.34-10.01L215.34-10.01Q214.97-10.55 214.85-11.17 214.73-11.79 214.84-12.39 214.95-12.99 215.29-13.51 215.63-14.04 216.19-14.4L216.19-14.4 233.38-25.85Q233.92-26.22 234.54-26.34 235.16-26.46 235.76-26.34 236.36-26.22 236.88-25.88 237.41-25.54 237.78-25ZM284.4-6.35L284.4 0 252.25 0 252.25-11.74Q252.25-12.65 252.46-13.66 252.67-14.67 253.11-15.67 253.54-16.67 254.24-17.58 254.94-18.48 255.92-19.18 256.91-19.87 258.21-20.29 259.5-20.7 261.14-20.7L261.14-20.7 275.44-20.7Q276.74-20.7 277.36-21.35 277.98-22 277.98-23.24L277.98-23.24 277.98-26.05Q277.98-27.34 277.35-28 276.71-28.66 275.49-28.66L275.49-28.66 255.11-28.66 255.11-35.01 275.49-35.01Q277.1-35.01 278.4-34.59 279.69-34.18 280.68-33.48 281.67-32.79 282.38-31.88 283.09-30.98 283.54-29.99 283.99-29 284.2-27.99 284.4-26.98 284.4-26.1L284.4-26.1 284.4-23.24Q284.4-20.78 283.51-19.08 282.62-17.38 281.28-16.32 279.94-15.26 278.39-14.78 276.84-14.31 275.49-14.31L275.49-14.31 261.14-14.31Q260.36-14.31 259.89-14.09 259.43-13.87 259.17-13.5 258.92-13.13 258.79-12.67 258.67-12.21 258.6-11.74L258.6-11.74 258.6-6.35 284.4-6.35ZM319.83-26.1L319.83-8.91Q319.83-6.45 318.94-4.75 318.04-3.05 316.71-1.99 315.38-0.93 313.82-0.46 312.26 0 310.92 0L310.92 0 290.55 0 290.55-6.35 310.92-6.35Q312.21-6.35 312.83-7.01 313.45-7.67 313.45-8.91L313.45-8.91 313.45-14.31 290.55-14.31 290.55-20.7 313.45-20.7 313.45-26.05Q313.45-28.66 310.92-28.66L310.92-28.66 290.55-28.66 290.55-35.01 310.92-35.01Q312.55-35.01 313.84-34.59 315.14-34.18 316.13-33.48 317.12-32.79 317.82-31.88 318.53-30.98 318.97-29.99 319.41-29 319.62-27.99 319.83-26.98 319.83-26.1L319.83-26.1Z" opacity="1" transform="matrix(1,0,0,1,0,0)" fill="#000000" class="slogan-text-1" data-fill-palette-color="secondary" id="text-1"></path></svg></g></svg></g></svg></g></svg></g><g></g></svg></g><defs></defs></svg><rect width="395.52" height="129.16609233940733" fill="none" stroke="none" visibility="hidden"></rect></g></svg></g></svg>